<?xml version="1.0" encoding="utf-8"?>
<!-- Generator: Adobe Illustrator 16.0.3, SVG Export Plug-In . SVG Version: 6.00 Build 0)  -->
<!DOCTYPE svg PUBLIC "-//W3C//DTD SVG 1.1//EN" "http://www.w3.org/Graphics/SVG/1.1/DTD/svg11.dtd">
<svg version="1.1" id="Capa_1" xmlns="http://www.w3.org/2000/svg" xmlns:xlink="http://www.w3.org/1999/xlink" x="0px" y="0px"
	 width="512px" height="512px" viewBox="0 0 512 512" enable-background="new 0 0 512 512" xml:space="preserve">
<path fill-rule="evenodd" clip-rule="evenodd" fill="#F19516" d="M198.411,210.266c-27.431-32.021-51.202-59.876-75.124-87.599
	c-4.374-5.068-3.61-10.702-2.714-16.316c3.788-23.81,8.169-47.53,11.533-71.395c1.354-9.597,5.978-12.017,14.915-12.067
	c23.535-0.129,47.073-0.931,70.595-1.842c7.954-0.307,14.214,1.273,19.655,7.848c20.494,24.756,41.514,49.074,62.163,73.701
	c2.356,2.813,7.037,5.748,4.29,10.129c-2.392,3.813-7.354,2.16-11.163,2.239c-21.245,0.439-42.514,1.285-63.732,0.623
	c-12.497-0.391-17.177,4.45-18.652,16.416C207.173,156.399,202.946,180.645,198.411,210.266z"/>
<path fill-rule="evenodd" clip-rule="evenodd" fill="#1C395D" d="M257.253,13.872c43.437,1.651,82.59-3.529,121.224,4.688
	c44.959,9.563,71.104,38.922,75.161,84.542c2.943,33.097-1.99,65.38-13.688,96.429c-9.759,25.896-26.528,45.418-56.728,54.811
	c36.708,13.971,42.063,43.002,41.954,74.374c-0.063,18.387-2.721,36.635-7.297,54.506
	c-18.185,70.988-63.938,109.246-138.458,111.301c-69.474,1.912-139.044,0.219-208.563,0.895c-14.549,0.143-10.513-8.287-9.496-15.57
	c12.863-92.127,25.877-184.229,38.872-276.336c2.948-20.9,5.964-41.792,9.42-65.988c29.446,34.435,56.891,66.623,84.477,98.687
	c4.525,5.258,2.525,10.797,1.768,16.373c-5.576,40.954-10.803,81.963-17.012,122.823c-1.913,12.582,0.29,16.979,14.204,16.373
	c28.102-1.219,56.297-0.26,84.452-0.41c27.006-0.145,38.055-10.08,42.096-37.332c0.761-5.111,1.849-10.189,2.381-15.324
	c2.263-21.748-7.024-32.672-28.953-33.104c-22.4-0.439-44.827-0.514-67.224,0.051c-9.008,0.229-12.702-1.805-10.702-11.445
	c1.508-7.27,1.276-14.881,2.394-22.254c6.486-42.758,37.227-69.721,80.377-70.066c17.12-0.136,35.853,0.396,42.753-18.28
	c8.398-22.723,18.399-47.551,0.185-70.32c-22.231-27.792-45.888-54.448-68.9-81.616C267.981,26.998,264.133,22.218,257.253,13.872z"
	/>
<path fill-rule="evenodd" clip-rule="evenodd" fill="#FEFFFF" d="M265.587,327.986c-1.493,0.002-2.985,0.004-4.478,0.002
	c-5.259-0.008-6.726-2.061-5.404-7.193c0.4-1.558,1.287-1.664,2.514-1.659c4.975,0.017,9.95,0.046,14.925,0
	c2.91-0.026,4.29,1.438,4.331,4.23c0.043,2.945-1.182,4.728-4.426,4.632C270.563,327.925,268.074,327.983,265.587,327.986z"/>
<path fill-rule="evenodd" clip-rule="evenodd" fill="#FEFFFF" d="M318.287,331.623c-5.393,0-10.072,0-15.425,0
	c2.644-5.013,5.063-9.599,7.836-14.858C313.348,321.95,315.706,326.569,318.287,331.623z"/>
</svg>
